<svg width="109" height="41" viewBox="0 0 109 41" fill="none" xmlns="http://www.w3.org/2000/svg">
<path d="M12.3028 40.548C8.02207 40.548 3.52478 39.7368 0 37.7833V3.3169C3.46958 1.41861 7.96686 0.552279 12.3028 0.552279C16.6387 0.552279 21.0298 1.3634 24.4951 3.3169V16.5412H15.7681V7.54239C14.7404 7.10923 13.4919 6.94785 12.2476 6.94785C11.0033 6.94785 9.8609 7.10923 8.77799 7.54239V33.5579C9.8057 33.991 10.999 34.1524 12.2476 34.1524C13.4961 34.1524 14.6852 33.991 15.7681 33.5579V24.5633H24.4951V37.7876C21.0808 39.6859 16.5835 40.497 12.3028 40.5522V40.548Z" fill="#F7DD43"/>
<path d="M40.8622 40.5479C36.2545 40.5479 31.8124 39.5712 28.2876 37.5667V3.47821C31.7572 1.52896 36.2035 0.552216 40.8622 0.552216C45.5209 0.552216 49.8568 1.47376 53.3264 3.47821V37.5667C49.912 39.5712 45.4147 40.4927 40.8622 40.5479ZM44.6036 7.65274C43.5759 7.21958 42.3273 7.003 40.8112 7.003C39.2952 7.003 38.1018 7.21958 37.0699 7.65274V33.3964C38.0976 33.8848 39.3461 34.1014 40.8112 34.1014C42.2764 34.1014 43.5207 33.8848 44.6036 33.3964V7.65274Z" fill="#F7DD43"/>
<path d="M68.555 25.9137H66.2235V40.0596H57.3903V1.04061H68.555C73.8676 1.04061 77.8765 2.12353 81.0191 4.34457V22.6097C77.9317 24.7798 73.8634 25.9137 68.555 25.9137ZM72.2411 7.75894C71.43 7.1644 70.3428 6.89261 68.4997 6.89261H66.1131V20.0617H68.4997C70.2876 20.0617 71.3705 19.7899 72.2411 19.2506V7.75894Z" fill="#F7DD43"/>
<path d="M99.4966 40.0595V25.9137H92.9949V40.0595H84.2169V3.423C87.4147 1.52472 91.912 0.552216 96.2479 0.552216C100.584 0.552216 105.026 1.52896 108.224 3.423V40.0595H99.4966ZM99.4966 7.32575C98.5751 6.89258 97.437 6.676 96.2436 6.676C95.0503 6.676 93.9122 6.89258 92.9906 7.32575V19.7347H99.4924V7.32575H99.4966Z" fill="#F7DD43"/>
</svg>
